  0
SECTION
  2
HEADER
  9
$ACADVER
  1
AC1024
  9
$ACADMAINTVER
 70
6
  9
$DWGCODEPAGE
  3
ANSI_1252
  9
$LASTSAVEDBY
  1
ezdxf
  9
$INSBASE
 10
0.0
 20
0.0
 30
0.0
  9
$EXTMIN
 10
1e+20
 20
1e+20
 30
1e+20
  9
$EXTMAX
 10
-1e+20
 20
-1e+20
 30
-1e+20
  9
$LIMMIN
 10
0.0
 20
0.0
  9
$LIMMAX
 10
420.0
 20
297.0
  9
$ORTHOMODE
 70
0
  9
$REGENMODE
 70
1
  9
$FILLMODE
 70
1
  9
$QTEXTMODE
 70
0
  9
$MIRRTEXT
 70
1
  9
$LTSCALE
 40
1.0
  9
$ATTMODE
 70
1
  9
$TEXTSIZE
 40
2.5
  9
$TRACEWID
 40
1.0
  9
$TEXTSTYLE
  7
Standard
  9
$CLAYER
  8
0
  9
$CELTYPE
  6
ByLayer
  9
$CECOLOR
 62
256
  9
$CELTSCALE
 40
1.0
  9
$DISPSILH
 70
0
  9
$DIMSCALE
 40
1.0
  9
$DIMASZ
 40
2.5
  9
$DIMEXO
 40
0.625
  9
$DIMDLI
 40
3.75
  9
$DIMRND
 40
0.0
  9
$DIMDLE
 40
0.0
  9
$DIMEXE
 40
1.25
  9
$DIMTP
 40
0.0
  9
$DIMTM
 40
0.0
  9
$DIMTXT
 40
2.5
  9
$DIMCEN
 40
2.5
  9
$DIMTSZ
 40
0.0
  9
$DIMTOL
 70
0
  9
$DIMLIM
 70
0
  9
$DIMTIH
 70
0
  9
$DIMTOH
 70
0
  9
$DIMSE1
 70
0
  9
$DIMSE2
 70
0
  9
$DIMTAD
 70
1
  9
$DIMZIN
 70
8
  9
$DIMBLK
  1

  9
$DIMASO
 70
1
  9
$DIMSHO
 70
1
  9
$DIMPOST
  1

  9
$DIMAPOST
  1

  9
$DIMALT
 70
0
  9
$DIMALTD
 70
3
  9
$DIMALTF
 40
0.03937007874
  9
$DIMLFAC
 40
1.0
  9
$DIMTOFL
 70
1
  9
$DIMTVP
 40
0.0
  9
$DIMTIX
 70
0
  9
$DIMSOXD
 70
0
  9
$DIMSAH
 70
0
  9
$DIMBLK1
  1

  9
$DIMBLK2
  1

  9
$DIMSTYLE
  2
ISO-25
  9
$DIMCLRD
 70
0
  9
$DIMCLRE
 70
0
  9
$DIMCLRT
 70
0
  9
$DIMTFAC
 40
1.0
  9
$DIMGAP
 40
0.625
  9
$DIMJUST
 70
0
  9
$DIMSD1
 70
0
  9
$DIMSD2
 70
0
  9
$DIMTOLJ
 70
0
  9
$DIMTZIN
 70
8
  9
$DIMALTZ
 70
0
  9
$DIMALTTZ
 70
0
  9
$DIMUPT
 70
0
  9
$DIMDEC
 70
2
  9
$DIMTDEC
 70
2
  9
$DIMALTU
 70
2
  9
$DIMALTTD
 70
3
  9
$DIMTXSTY
  7
Standard
  9
$DIMAUNIT
 70
0
  9
$DIMADEC
 70
0
  9
$DIMALTRND
 40
0.0
  9
$DIMAZIN
 70
0
  9
$DIMDSEP
 70
44
  9
$DIMATFIT
 70
3
  9
$DIMFRAC
 70
0
  9
$DIMLDRBLK
  1

  9
$DIMLUNIT
 70
2
  9
$DIMLWD
 70
-2
  9
$DIMLWE
 70
-2
  9
$DIMTMOVE
 70
0
  9
$DIMFXL
 40
1.0
  9
$DIMFXLON
 70
0
  9
$DIMJOGANG
 40
0.785398163397
  9
$DIMTFILL
 70
0
  9
$DIMTFILLCLR
 70
0
  9
$DIMARCSYM
 70
0
  9
$DIMLTYPE
  6

  9
$DIMLTEX1
  6

  9
$DIMLTEX2
  6

  9
$DIMTXTDIRECTION
 70
0
  9
$LUNITS
 70
2
  9
$LUPREC
 70
4
  9
$SKETCHINC
 40
1.0
  9
$FILLETRAD
 40
10.0
  9
$AUNITS
 70
0
  9
$AUPREC
 70
2
  9
$MENU
  1
.
  9
$ELEVATION
 40
0.0
  9
$PELEVATION
 40
0.0
  9
$THICKNESS
 40
0.0
  9
$LIMCHECK
 70
0
  9
$CHAMFERA
 40
0.0
  9
$CHAMFERB
 40
0.0
  9
$CHAMFERC
 40
0.0
  9
$CHAMFERD
 40
0.0
  9
$SKPOLY
 70
0
  9
$TDCREATE
 40
2460966.6872222223
  9
$TDUCREATE
 40
2458532.153996898
  9
$TDUPDATE
 40
2460966.6872222223
  9
$TDUUPDATE
 40
2458532.1544311
  9
$TDINDWG
 40
0.0
  9
$TDUSRTIMER
 40
0.0
  9
$USRTIMER
 70
1
  9
$ANGBASE
 50
0.0
  9
$ANGDIR
 70
0
  9
$PDMODE
 70
0
  9
$PDSIZE
 40
0.0
  9
$PLINEWID
 40
0.0
  9
$SPLFRAME
 70
0
  9
$SPLINETYPE
 70
6
  9
$SPLINESEGS
 70
8
  9
$HANDSEED
  5
33
  9
$SURFTAB1
 70
6
  9
$SURFTAB2
 70
6
  9
$SURFTYPE
 70
6
  9
$SURFU
 70
6
  9
$SURFV
 70
6
  9
$UCSBASE
  2

  9
$UCSNAME
  2

  9
$UCSORG
 10
0.0
 20
0.0
 30
0.0
  9
$UCSXDIR
 10
1.0
 20
0.0
 30
0.0
  9
$UCSYDIR
 10
0.0
 20
1.0
 30
0.0
  9
$UCSORTHOREF
  2

  9
$UCSORTHOVIEW
 70
0
  9
$UCSORGTOP
 10
0.0
 20
0.0
 30
0.0
  9
$UCSORGBOTTOM
 10
0.0
 20
0.0
 30
0.0
  9
$UCSORGLEFT
 10
0.0
 20
0.0
 30
0.0
  9
$UCSORGRIGHT
 10
0.0
 20
0.0
 30
0.0
  9
$UCSORGFRONT
 10
0.0
 20
0.0
 30
0.0
  9
$UCSORGBACK
 10
0.0
 20
0.0
 30
0.0
  9
$PUCSBASE
  2

  9
$PUCSNAME
  2

  9
$PUCSORG
 10
0.0
 20
0.0
 30
0.0
  9
$PUCSXDIR
 10
1.0
 20
0.0
 30
0.0
  9
$PUCSYDIR
 10
0.0
 20
1.0
 30
0.0
  9
$PUCSORTHOREF
  2

  9
$PUCSORTHOVIEW
 70
0
  9
$PUCSORGTOP
 10
0.0
 20
0.0
 30
0.0
  9
$PUCSORGBOTTOM
 10
0.0
 20
0.0
 30
0.0
  9
$PUCSORGLEFT
 10
0.0
 20
0.0
 30
0.0
  9
$PUCSORGRIGHT
 10
0.0
 20
0.0
 30
0.0
  9
$PUCSORGFRONT
 10
0.0
 20
0.0
 30
0.0
  9
$PUCSORGBACK
 10
0.0
 20
0.0
 30
0.0
  9
$USERI1
 70
0
  9
$USERI2
 70
0
  9
$USERI3
 70
0
  9
$USERI4
 70
0
  9
$USERI5
 70
0
  9
$USERR1
 40
0.0
  9
$USERR2
 40
0.0
  9
$USERR3
 40
0.0
  9
$USERR4
 40
0.0
  9
$USERR5
 40
0.0
  9
$WORLDVIEW
 70
1
  9
$SHADEDGE
 70
3
  9
$SHADEDIF
 70
70
  9
$TILEMODE
 70
1
  9
$MAXACTVP
 70
64
  9
$PINSBASE
 10
0.0
 20
0.0
 30
0.0
  9
$PLIMCHECK
 70
0
  9
$PEXTMIN
 10
1e+20
 20
1e+20
 30
1e+20
  9
$PEXTMAX
 10
-1e+20
 20
-1e+20
 30
-1e+20
  9
$PLIMMIN
 10
0.0
 20
0.0
  9
$PLIMMAX
 10
420.0
 20
297.0
  9
$UNITMODE
 70
0
  9
$VISRETAIN
 70
1
  9
$PLINEGEN
 70
0
  9
$PSLTSCALE
 70
1
  9
$TREEDEPTH
 70
3020
  9
$CMLSTYLE
  2
Standard
  9
$CMLJUST
 70
0
  9
$CMLSCALE
 40
20.0
  9
$PROXYGRAPHICS
 70
1
  9
$MEASUREMENT
 70
1
  9
$CELWEIGHT
370
-1
  9
$ENDCAPS
280
0
  9
$JOINSTYLE
280
0
  9
$LWDISPLAY
290
0
  9
$INSUNITS
 70
6
  9
$HYPERLINKBASE
  1

  9
$STYLESHEET
  1

  9
$XEDIT
290
1
  9
$CEPSNTYPE
380
0
  9
$PSTYLEMODE
290
1
  9
$FINGERPRINTGUID
  2
{3BB129F3-6B4B-472F-B9ED-0EF9D9460A7D}
  9
$VERSIONGUID
  2
{EE1F233C-F540-4373-B8D1-637012889FDB}
  9
$EXTNAMES
290
1
  9
$PSVPSCALE
 40
0.0
  9
$OLESTARTUP
290
0
  9
$SORTENTS
280
127
  9
$INDEXCTL
280
0
  9
$HIDETEXT
280
1
  9
$XCLIPFRAME
280
1
  9
$HALOGAP
280
0
  9
$OBSCOLOR
 70
257
  9
$OBSLTYPE
280
0
  9
$INTERSECTIONDISPLAY
280
0
  9
$INTERSECTIONCOLOR
 70
257
  9
$DIMASSOC
280
2
  9
$PROJECTNAME
  1

  9
$CAMERADISPLAY
290
0
  9
$LENSLENGTH
 40
50.0
  9
$CAMERAHEIGHT
 40
0.0
  9
$STEPSPERSEC
 40
24.0
  9
$STEPSIZE
 40
100.0
  9
$3DDWFPREC
 40
2.0
  9
$PSOLWIDTH
 40
0.005
  9
$PSOLHEIGHT
 40
0.08
  9
$LOFTANG1
 40
1.570796326795
  9
$LOFTANG2
 40
1.570796326795
  9
$LOFTMAG1
 40
0.0
  9
$LOFTMAG2
 40
0.0
  9
$LOFTPARAM
 70
7
  9
$LOFTNORMALS
280
1
  9
$LATITUDE
 40
37.795
  9
$LONGITUDE
 40
-122.394
  9
$NORTHDIRECTION
 40
0.0
  9
$TIMEZONE
 70
-8000
  9
$LIGHTGLYPHDISPLAY
280
1
  9
$TILEMODELIGHTSYNCH
280
1
  9
$CMATERIAL
347
20
  9
$SOLIDHIST
280
0
  9
$SHOWHIST
280
1
  9
$DWFFRAME
280
2
  9
$DGNFRAME
280
2
  9
$REALWORLDSCALE
290
1
  9
$INTERFERECOLOR
 62
256
  9
$CSHADOW
280
0
  9
$SHADOWPLANELOCATION
 40
0.0
  0
ENDSEC
  0
SECTION
  2
CLASSES
  0
CLASS
  1
ACDBDICTIONARYWDFLT
  2
AcDbDictionaryWithDefault
  3
ObjectDBX Classes
 90
0
 91
0
280
0
281
0
  0
CLASS
  1
SUN
  2
AcDbSun
  3
SCENEOE
 90
1153
 91
0
280
0
281
0
  0
CLASS
  1
VISUALSTYLE
  2
AcDbVisualStyle
  3
ObjectDBX Classes
 90
4095
 91
0
280
0
281
0
  0
CLASS
  1
MATERIAL
  2
AcDbMaterial
  3
ObjectDBX Classes
 90
1153
 91
0
280
0
281
0
  0
CLASS
  1
SCALE
  2
AcDbScale
  3
ObjectDBX Classes
 90
1153
 91
0
280
0
281
0
  0
CLASS
  1
TABLESTYLE
  2
AcDbTableStyle
  3
ObjectDBX Classes
 90
4095
 91
0
280
0
281
0
  0
CLASS
  1
MLEADERSTYLE
  2
AcDbMLeaderStyle
  3
ACDB_MLEADERSTYLE_CLASS
 90
4095
 91
0
280
0
281
0
  0
CLASS
  1
DICTIONARYVAR
  2
AcDbDictionaryVar
  3
ObjectDBX Classes
 90
0
 91
0
280
0
281
0
  0
CLASS
  1
CELLSTYLEMAP
  2
AcDbCellStyleMap
  3
ObjectDBX Classes
 90
1152
 91
0
280
0
281
0
  0
CLASS
  1
MENTALRAYRENDERSETTINGS
  2
AcDbMentalRayRenderSettings
  3
SCENEOE
 90
1024
 91
0
280
0
281
0
  0
CLASS
  1
ACDBDETAILVIEWSTYLE
  2
AcDbDetailViewStyle
  3
ObjectDBX Classes
 90
1025
 91
0
280
0
281
0
  0
CLASS
  1
ACDBSECTIONVIEWSTYLE
  2
AcDbSectionViewStyle
  3
ObjectDBX Classes
 90
1025
 91
0
280
0
281
0
  0
CLASS
  1
RASTERVARIABLES
  2
AcDbRasterVariables
  3
ISM
 90
0
 91
0
280
0
281
0
  0
CLASS
  1
ACDBPLACEHOLDER
  2
AcDbPlaceHolder
  3
ObjectDBX Classes
 90
0
 91
0
280
0
281
0
  0
CLASS
  1
LAYOUT
  2
AcDbLayout
  3
ObjectDBX Classes
 90
0
 91
0
280
0
281
0
  0
ENDSEC
  0
SECTION
  2
TABLES
  0
TABLE
  2
VPORT
  5
8
330
0
100
AcDbSymbolTable
 70
1
  0
VPORT
  5
23
330
8
100
AcDbSymbolTableRecord
100
AcDbViewportTableRecord
  2
*Active
 70
0
 10
0.0
 20
0.0
 11
1.0
 21
1.0
 12
0.0
 22
0.0
 13
0.0
 23
0.0
 14
0.5
 24
0.5
 15
0.5
 25
0.5
 16
0.0
 26
0.0
 36
1.0
 17
0.0
 27
0.0
 37
0.0
 40
1000.0
 41
1.34
 42
50.0
 43
0.0
 44
0.0
 50
0.0
 51
0.0
 71
0
 72
1000
 73
1
 74
3
 75
0
 76
0
 77
0
 78
0
281
0
 65
0
146
0.0
  0
ENDTAB
  0
TABLE
  2
LTYPE
  5
2
330
0
100
AcDbSymbolTable
 70
3
  0
LTYPE
  5
24
330
2
100
AcDbSymbolTableRecord
100
AcDbLinetypeTableRecord
  2
ByBlock
 70
0
  3

 72
65
 73
0
 40
0.0
  0
LTYPE
  5
25
330
2
100
AcDbSymbolTableRecord
100
AcDbLinetypeTableRecord
  2
ByLayer
 70
0
  3

 72
65
 73
0
 40
0.0
  0
LTYPE
  5
26
330
2
100
AcDbSymbolTableRecord
100
AcDbLinetypeTableRecord
  2
Continuous
 70
0
  3

 72
65
 73
0
 40
0.0
  0
ENDTAB
  0
TABLE
  2
LAYER
  5
1
330
0
100
AcDbSymbolTable
 70
2
  0
LAYER
  5
27
330
1
100
AcDbSymbolTableRecord
100
AcDbLayerTableRecord
  2
0
 70
0
 62
7
  6
Continuous
370
-3
390
13
347
21
  0
LAYER
  5
28
330
1
100
AcDbSymbolTableRecord
100
AcDbLayerTableRecord
  2
Defpoints
 70
0
 62
7
  6
Continuous
290
0
370
-3
390
13
347
21
  0
ENDTAB
  0
TABLE
  2
STYLE
  5
5
330
0
100
AcDbSymbolTable
 70
1
  0
STYLE
  5
29
330
5
100
AcDbSymbolTableRecord
100
AcDbTextStyleTableRecord
  2
Standard
 70
0
 40
0.0
 41
1.0
 50
0.0
 71
0
 42
2.5
  3
txt
  4

  0
ENDTAB
  0
TABLE
  2
VIEW
  5
7
330
0
100
AcDbSymbolTable
 70
0
  0
ENDTAB
  0
TABLE
  2
UCS
  5
6
330
0
100
AcDbSymbolTable
 70
0
  0
ENDTAB
  0
TABLE
  2
APPID
  5
3
330
0
100
AcDbSymbolTable
 70
3
  0
APPID
  5
2A
330
3
100
AcDbSymbolTableRecord
100
AcDbRegAppTableRecord
  2
ACAD
 70
0
  0
APPID
  5
30
330
3
100
AcDbSymbolTableRecord
100
AcDbRegAppTableRecord
  2
HATCHBACKGROUNDCOLOR
 70
0
  0
APPID
  5
31
330
3
100
AcDbSymbolTableRecord
100
AcDbRegAppTableRecord
  2
EZDXF
 70
0
  0
ENDTAB
  0
TABLE
  2
DIMSTYLE
  5
4
330
0
100
AcDbSymbolTable
 70
1
100
AcDbDimStyleTable
  0
DIMSTYLE
105
2B
330
4
100
AcDbSymbolTableRecord
100
AcDbDimStyleTableRecord
  2
Standard
 70
0
 40
1.0
 41
2.5
 42
0.625
 43
3.75
 44
1.25
 45
0.0
 46
0.0
 47
0.0
 48
0.0
 49
2.5
140
2.5
141
2.5
142
0.0
143
0.03937007874
144
1.0
145
0.0
146
1.0
147
0.625
148
0.0
 69
0
 70
0
 71
0
 72
0
 73
0
 74
0
 75
0
 76
0
 77
1
 78
8
 79
3
170
0
171
3
172
1
173
0
174
0
175
0
176
0
177
0
178
0
179
2
271
2
272
2
273
2
274
3
275
0
276
0
277
2
278
44
279
0
280
0
281
0
282
0
283
0
284
8
285
0
286
0
288
0
289
3
290
0
371
-2
372
-2
  0
ENDTAB
  0
TABLE
  2
BLOCK_RECORD
  5
9
330
0
100
AcDbSymbolTable
 70
2
  0
BLOCK_RECORD
  5
17
330
9
100
AcDbSymbolTableRecord
100
AcDbBlockTableRecord
  2
*Model_Space
340
1A
 70
0
280
1
281
0
  0
BLOCK_RECORD
  5
1B
330
9
100
AcDbSymbolTableRecord
100
AcDbBlockTableRecord
  2
*Paper_Space
340
1E
 70
0
280
1
281
0
  0
ENDTAB
  0
ENDSEC
  0
SECTION
  2
BLOCKS
  0
BLOCK
  5
18
330
17
100
AcDbEntity
  8
0
100
AcDbBlockBegin
  2
*Model_Space
 70
0
 10
0.0
 20
0.0
 30
0.0
  3
*Model_Space
  1

  0
ENDBLK
  5
19
330
17
100
AcDbEntity
  8
0
100
AcDbBlockEnd
  0
BLOCK
  5
1C
330
1B
100
AcDbEntity
  8
0
100
AcDbBlockBegin
  2
*Paper_Space
 70
0
 10
0.0
 20
0.0
 30
0.0
  3
*Paper_Space
  1

  0
ENDBLK
  5
1D
330
1B
100
AcDbEntity
  8
0
100
AcDbBlockEnd
  0
ENDSEC
  0
SECTION
  2
ENTITIES
  0
LWPOLYLINE
  5
2F
330
17
100
AcDbEntity
  8
0
100
AcDbPolyline
 90
281
 70
0
 10
-9.739220900176646
 20
3.31669957098768e-05
 10
-9.7491142758517
 20
0.00016786494960596698
 10
-9.75900618688576
 20
0.00040615844877889273
 10
-9.768898786386192
 20
0.0007481590803122273
 10
-9.778785326058255
 20
0.0011936523110822606
 10
-9.788667959667494
 20
0.001742712970274507
 10
-9.798548836184018
 20
0.0023955373489683573
 10
-9.808421214023388
 20
0.003151715937823152
 10
-9.818287243411804
 20
0.004011408284532614
 10
-9.828149066780867
 20
0.004974895335740914
 10
-9.837999953450463
 20
0.006041572706929177
 10
-9.84784204770507
 20
0.00721168462493349
 10
-9.857677483032631
 20
0.008485596622642255
 10
-9.867499543851503
 20
0.009862509589483981
 10
-9.877310366097662
 20
0.01134275237117599
 10
-9.887112071904747
 20
0.012926774996662171
 10
-9.896897964983859
 20
0.014613583826485144
 10
-9.906670170509694
 20
0.016403592244107923
 10
-9.91643079684375
 20
0.018297334663490705
 10
-9.926173171184395
 20
0.02029362316145722
 10
-9.935899405524513
 20
0.022392955557218652
 10
-9.945611592026841
 20
0.024595950517892984
 10
-9.955303085571718
 20
0.026901226129686595
 10
-9.96497598254036
 20
0.02930936452473043
 10
-9.97463235645948
 20
0.03182106847065347
 10
-9.984265594086432
 20
0.03443476240401244
 10
-9.993877773749702
 20
0.037151112626223615
 10
-10.003470947890381
 20
0.03997090583203056
 10
-10.013038539338194
 20
0.04289237319708494
 10
-10.022582605914877
 20
0.045916265027692305
 10
-10.032105176512069
 20
0.04904345175160296
 10
-10.041599714227575
 20
0.0522719717199962
 10
-10.05106825390751
 20
0.05560265905893669
 10
-10.060512798414063
 20
0.05903646771442039
 10
-10.069926855309236
 20
0.06257124369715994
 10
-10.079312433977824
 20
0.06620790474717175
 10
-10.08867150875436
 20
0.06994748809332307
 10
-10.097997635861608
 20
0.07378764793732717
 10
-10.107292796718458
 20
0.07772938540671204
 10
-10.116558934613243
 20
0.08177382075729822
 10
-10.12578965862652
 20
0.08591841696058644
 10
-10.13498691968563
 20
0.09016425828460584
 10
-10.144152627491607
 20
0.09451254773572115
 10
-10.153280448180306
 20
0.0989605576811976
 10
-10.162372299638534
 20
0.10350945526203681
 10
-10.17143005541397
 20
0.10816052593832426
 10
-10.180447442895783
 20
0.11291085214609176
 10
-10.189426344355493
 20
0.11776168361133887
 10
-10.198368594593914
 20
0.12271438793070466
 10
-10.207267986452042
 20
0.12776585832885212
 10
-10.21612636398303
 20
0.1329174268084281
 10
-10.224945520617158
 20
0.1381705427651907
 10
-10.233719318846278
 20
0.1435219109789836
 10
-10.242449561871005
 20
0.14897294540045047
 10
-10.251137999094453
 20
0.1545251768668514
 10
-10.259778566858808
 20
0.16017512252625776
 10
-10.268373024843987
 20
0.16592427792843756
 10
-10.276923075733254
 20
0.17177425497444254
 10
-10.285422733919031
 20
0.17772138403991233
 10
-10.293873712855266
 20
0.18376724190473626
 10
-10.302277665773387
 20
0.18991352113604387
 10
-10.310628689316305
 20
0.19615636624246946
 10
-10.318928447966234
 20
0.2024974348449753
 10
-10.327178542727978
 20
0.2089384997591539
 10
-10.335373156695432
 20
0.21547552057791952
 10
-10.343513902589239
 20
0.22211023535431274
 10
-10.351602326366194
 20
0.22884449671497453
 10
-10.359632701771776
 20
0.23567408033400783
 10
-10.367606586927266
 20
0.24260080426769548
 10
-10.375525469869418
 20
0.249626600496617
 10
-10.383383719195802
 20
0.2567470618183534
 10
-10.391182835538382
 20
0.26396408584385167
 10
-10.398924246086796
 20
0.27127968343094144
 10
-10.406602418490898
 20
0.27868926558809637
 10
-10.414218792946695
 20
0.2861948090127169
 10
-10.421774732809846
 20
0.29379840294373727
 10
-10.429264808982014
 20
0.3014952777327844
 10
-10.436690398215042
 20
0.3092874886759951
 10
-10.44405279697878
 20
0.31717720287791806
 10
-10.451346683625234
 20
0.3251594712101742
 10
-10.458573368386935
 20
0.3332364270605228
 10
-10.465734077725568
 20
0.34141031486442586
 10
-10.47282360164048
 20
0.34967600723462144
 10
-10.479843180697076
 20
0.3580357151241089
 10
-10.486793968149874
 20
0.36649175974548465
 10
-10.49367086984049
 20
0.37503883671770977
 10
-10.500475053440361
 20
0.383679234013504
 10
-10.5072075957146
 20
0.39241534904987274
 10
-10.513863522539188
 20
0.4012417017607772
 10
-10.520443925378908
 20
0.41016065657413403
 10
-10.52694980113672
 20
0.4191746865198316
 10
-10.533376299911396
 20
0.428278137198955
 10
-10.53972443355499
 20
0.43747344891123197
 10
-10.545995115637204
 20
0.4467631696892491
 10
-10.552183624663252
 20
0.4561414721963546
 10
-10.558290889364825
 20
0.46561087200197937
 10
-10.564317736400204
 20
0.4751739915127198
 10
-10.570259576858707
 20
0.4848248318919932
 10
-10.576117252733436
 20
0.4945659833582572
 10
-10.581891500076589
 20
0.5044001420450765
 10
-10.587577866731708
 20
0.5143211390960647
 10
-10.59317710421464
 20
0.5243316387396035
 10
-10.598689854149907
 20
0.5344344101709986
 10
-10.604111805296043
 20
0.5446231160361288
 10
-10.60944361482168
 20
0.554900493915945
 10
-10.614685825963699
 20
0.5652693853842354
 10
-10.619834272544896
 20
0.5757232861527939
 10
-10.624889513373471
 20
0.5862650064796799
 10
-10.629851989187703
 20
0.5968974596160486
 10
-10.634717683009848
 20
0.6076139759444446
 10
-10.639487051118035
 20
0.6184174377066496
 10
-10.644160427476072
 20
0.6293108291123826
 10
-10.648733948423766
 20
0.640287316860567
 10
-10.653207963368528
 20
0.6513498544655563
 10
-10.657582695043539
 20
0.6625014963593254
 10
-10.661854437203532
 20
0.673735247243191
 10
-10.66602342785744
 20
0.6850541311753426
 10
-10.670089773854318
 20
0.6964612720563763
 10
-10.67404993043625
 20
0.707949514315986
 10
-10.67790401948093
 20
0.7195219518100586
 10
-10.681652027083551
 20
0.7311817771370328
 10
-10.68529057401599
 20
0.7429216762205129
 10
-10.688819661067077
 20
0.7547448119507147
 10
-10.692239148471153
 20
0.7666544448362007
 10
-10.695545826536437
 20
0.7786431040991193
 10
-10.698739569758299
 20
0.7907140208836241
 10
-10.701820107142593
 20
0.8028705228039144
 10
-10.704784402497546
 20
0.8151049842239884
 10
-10.70763219854884
 20
0.8274207037447003
 10
-10.710363087419454
 20
0.8398210752648478
 10
-10.712974210330165
 20
0.8522983201717897
 10
-10.715465172461572
 20
0.8648558037092018
 10
-10.717835423083438
 20
0.8774969852230843
 10
-10.720082284680824
 20
0.8902139350434148
 10
-10.722205218783804
 20
0.9030100842263655
 10
-10.72420352548993
 20
0.9158889567115986
 10
-10.726074712328039
 20
0.9288424737282375
 10
-10.727818090707569
 20
0.941874131298388
 10
-10.729432804849488
 20
0.9549875170858968
 10
-10.730916551020163
 20
0.9681744052123475
 10
-10.732268483634671
 20
0.9814383558031898
 10
-10.733487583906303
 20
0.9947830193612508
 10
-10.7345717404311
 20
1.0082000249301886
 10
-10.735519943308494
 20
1.0216929958603873
 10
-10.736331003139666
 20
1.0352656445929473
 10
-10.737003004322089
 20
1.0489094571590112
 10
-10.737534764821095
 20
1.0626281192398888
 10
-10.73792491649524
 20
1.0764254042989658
 10
-10.738171742872643
 20
1.0902926574555605
 10
-10.73827388141267
 20
1.1042336258125252
 10
-10.738229776514869
 20
1.1182521429244847
 10
-10.738037913998486
 20
1.1323394151343944
 10
-10.737696741827746
 20
1.1464992500421074
 10
-10.737204507572994
 20
1.160735540347615
 10
-10.736559902305332
 20
1.1750393557872147
 10
-10.735761174814604
 20
1.18941456351829
 10
-10.73480636574048
 20
1.2038651144257355
 10
-10.73369437413015
 20
1.2183819438425978
 10
-10.732423239146648
 20
1.2329689775296293
 10
-10.730990783577678
 20
1.2476302235818042
 10
-10.72939611689062
 20
1.2623564851654896
 10
-10.727637057300864
 20
1.2771517456761856
 10
-10.72571119790154
 20
1.2920200694300075
 10
-10.723617860692311
 20
1.306952129695825
 10
-10.721354630642288
 20
1.3219519665210404
 10
-10.718918858269317
 20
1.3370236994401026
 10
-10.716310079823677
 20
1.352157874125615
 10
-10.713525633625572
 20
1.3673585862800608
 10
-10.710562613564147
 20
1.3826300096397874
 10
-10.707420771391035
 20
1.3979625646138492
 10
-10.704097184125098
 20
1.4133604015492538
 10
-10.700588673644662
 20
1.4288277473544437
 10
-10.696895207897668
 20
1.4443548995385398
 10
-10.693013586530007
 20
1.4599460620690423
 10
-10.688940342517295
 20
1.4756055139835609
 10
-10.684675660037069
 20
1.4913234322852276
 10
-10.680216043674227
 20
1.5071040735247703
 10
-10.675557718888781
 20
1.5229517678131739
 10
-10.670701085332212
 20
1.5388565740712625
 10
-10.66564233299337
 20
1.5548228003827496
 10
-10.660377359235572
 20
1.5708548268636071
 10
-10.65490677748615
 20
1.5869425968051627
 10
-10.64922644148506
 20
1.6030904687611596
 10
-10.643331897659108
 20
1.6193028717718296
 10
-10.63722397038525
 20
1.6355696359803455
 10
-10.63089815306471
 20
1.6518951693350732
 10
-10.624349615746366
 20
1.6682839487077037
 10
-10.617579389577017
 20
1.6847256936025161
 10
-10.610582580714416
 20
1.7012248602749023
 10
-10.603353954379994
 20
1.7177859723234148
 10
-10.595894742682484
 20
1.734398641149994
 10
-10.588199634366948
 20
1.7510673702175459
 10
-10.580262957885589
 20
1.7677967287353504
 10
-10.572086138537298
 20
1.7845762225662445
 10
-10.563663413683354
 20
1.8014104012694834
 10
-10.554988638993194
 20
1.818303878537693
 10
-10.546063422807904
 20
1.8352460572838762
 10
-10.53688151268642
 20
1.8522415320411028
 10
-10.527436250732839
 20
1.8692949598469837
 10
-10.517729415297815
 20
1.886395643279361
 10
-10.507754220492014
 20
1.9035482207114878
 10
-10.497503448459058
 20
1.9207573913769054
 10
-10.486979031011712
 20
1.9380123601577228
 10
-10.476173598991643
 20
1.9553178081229279
 10
-10.465079321547844
 20
1.9726784755425264
 10
-10.45369826310798
 20
1.9900834722664293
 10
-10.442022414091273
 20
2.007537520904374
 10
-10.430043269722166
 20
2.025045401593241
 10
-10.417763000913235
 20
2.0425961318377244
 10
-10.405172891750757
 20
2.060194474623078
 10
-10.392263693160208
 20
2.0778452487736296
 10
-10.379037649887865
 20
2.095537382158623
 10
-10.365485263255634
 20
2.1132756769636325
 10
-10.351596458149263
 20
2.1310649895114615
 10
-10.337373512406211
 20
2.148894160767785
 10
-10.322806055431375
 20
2.166768030933631
 10
-10.307883090561173
 20
2.1846914926320533
 10
-10.29260687788631
 20
2.202653302678483
 10
-10.276966070254957
 20
2.2206583380951557
 10
-10.260948637148639
 20
2.238711526598191
 10
-10.24455675740102
 20
2.256801543626866
 10
-10.227777983671155
 20
2.2749333018212905
 10
-10.210599118637814
 20
2.293111762774812
 10
-10.193022180355142
 20
2.311325523344718
 10
-10.175033474185508
 20
2.329579530576871
 10
-10.156618477483175
 20
2.3478787787176487
 10
-10.137778947622385
 20
2.366211788855903
 10
-10.118499766299824
 20
2.384583541222641
 10
-10.098764895064935
 20
2.402999061485013
 10
-10.07857570457389
 20
2.421446797795687
 10
-10.057915439681567
 20
2.439931762342016
 10
-10.036766315340936
 20
2.458459010971915
 10
-10.015129155638064
 20
2.4770169217521127
 10
-9.992985308653598
 20
2.495610537589627
 10
-9.970314960589262
 20
2.514244943265684
 10
-9.94711818495266
 20
2.532908449628608
 10
-9.923374113085824
 20
2.551606129060823
 10
-9.89906055411809
 20
2.5703430940222685
 10
-9.874176568711103
 20
2.5891075910269934
 10
-9.84869867352631
 20
2.6079047206812866
 10
-9.822601866038617
 20
2.6267396218623844
 10
-9.795883854053052
 20
2.645600479650053
 10
-9.768518039026684
 20
2.664492421615951
 10
-9.740476058259224
 20
2.6834206117866675
 10
-9.711753821635886
 20
2.7023731767228405
 10
-9.682320978042902
 20
2.721355269696349
 10
-9.65214510340732
 20
2.740372078608988
 10
-9.621219720687236
 20
2.759411674431862
 10
-9.589509903459685
 20
2.7784792348655754
 10
-9.556978257221711
 20
2.7975799704070914
 10
-9.523615128680762
 20
2.8167018993812927
 10
-9.489379937943271
 20
2.8358502226399875
 10
-9.45422912299622
 20
2.8550301719896973
 10
-9.418148781323398
 20
2.8742297160653782
 10
-9.38109124270985
 20
2.8934540775868136
 10
-9.343005173511404
 20
2.91270850837921
 10
-9.303870939428688
 20
2.9319809303561595
 10
-9.263631828527329
 20
2.95127658681679
 10
-9.222226543282769
 20
2.9706007483091854
 10
-9.179627630345722
 20
2.9899412930056597
 10
-9.135766628553773
 20
3.0093034834909806
 10
-9.090569212864528
 20
3.028692607735681
 10
-9.043997107911094
 20
3.048096503161675
 10
-8.995966253809152
 20
3.067520450340907
 10
-8.946384905679354
 20
3.08696975336163
 10
-8.895199535425656
 20
3.1064322118962946
 10
-8.842304854831522
 20
3.125913123201117
 10
-8.787585212592528
 20
3.1454178061733695
 10
-8.730965094030001
 20
3.164934025746284
 10
-8.672309474288983
 20
3.184467094553332
 10
-8.61146887761344
 20
3.204022344988444
 10
-7.598520179233858
 20
3.2076515284038924
 10
-8.54833520163809
 20
3.2076515284038924
 10
-6.648705156829625
 20
3.2076515284038924
 10
-4.749075112021162
 20
3.2076515284038924
 10
-5.698890134425394
 20
3.2076515284038924
 10
-2.849445067212697
 20
3.2076515284038924
 10
-1.8996300448084646
 20
3.2076515284038924
 10
-0.9498150224042323
 20
3.2076515284038924
 10
-3.7992600896169293
 20
3.2076515284038924
 10
0.0
 20
3.2076515284038924
  0
ENDSEC
  0
SECTION
  2
OBJECTS
  0
DICTIONARY
  5
A
330
0
100
AcDbDictionary
280
0
281
1
  3
ACAD_COLOR
350
B
  3
ACAD_GROUP
350
C
  3
ACAD_LAYOUT
350
D
  3
ACAD_MATERIAL
350
E
  3
ACAD_MLEADERSTYLE
350
F
  3
ACAD_MLINESTYLE
350
10
  3
ACAD_PLOTSETTINGS
350
11
  3
ACAD_PLOTSTYLENAME
350
12
  3
ACAD_SCALELIST
350
14
  3
ACAD_TABLESTYLE
350
15
  3
ACAD_VISUALSTYLE
350
16
  3
EZDXF_META
350
2D
  0
DICTIONARY
  5
B
330
A
100
AcDbDictionary
280
0
281
1
  0
DICTIONARY
  5
C
330
A
100
AcDbDictionary
280
0
281
1
  0
DICTIONARY
  5
D
330
A
100
AcDbDictionary
280
0
281
1
  3
Model
350
1A
  3
Layout1
350
1E
  0
DICTIONARY
  5
E
330
A
100
AcDbDictionary
280
0
281
1
  3
ByBlock
350
1F
  3
ByLayer
350
20
  3
Global
350
21
  0
DICTIONARY
  5
F
330
A
100
AcDbDictionary
280
0
281
1
  3
Standard
350
2C
  0
DICTIONARY
  5
10
330
A
100
AcDbDictionary
280
0
281
1
  3
Standard
350
22
  0
DICTIONARY
  5
11
330
A
100
AcDbDictionary
280
0
281
1
  0
ACDBDICTIONARYWDFLT
  5
12
330
A
100
AcDbDictionary
280
0
281
1
  3
Normal
350
13
100
AcDbDictionaryWithDefault
340
13
  0
ACDBPLACEHOLDER
  5
13
330
12
  0
DICTIONARY
  5
14
330
A
100
AcDbDictionary
280
0
281
1
  0
DICTIONARY
  5
15
330
A
100
AcDbDictionary
280
0
281
1
  0
DICTIONARY
  5
16
330
A
100
AcDbDictionary
280
0
281
1
  0
LAYOUT
  5
1A
330
D
100
AcDbPlotSettings
  1

  4
A3
  6

 40
7.5
 41
20.0
 42
7.5
 43
20.0
 44
420.0
 45
297.0
 46
0.0
 47
0.0
 48
0.0
 49
0.0
140
0.0
141
0.0
142
1.0
143
1.0
 70
1024
 72
1
 73
0
 74
5
  7

 75
16
 76
0
 77
2
 78
300
147
1.0
148
0.0
149
0.0
100
AcDbLayout
  1
Model
 70
1
 71
0
 10
0.0
 20
0.0
 11
420.0
 21
297.0
 12
0.0
 22
0.0
 32
0.0
 14
1e+20
 24
1e+20
 34
1e+20
 15
-1e+20
 25
-1e+20
 35
-1e+20
146
0.0
 13
0.0
 23
0.0
 33
0.0
 16
1.0
 26
0.0
 36
0.0
 17
0.0
 27
1.0
 37
0.0
 76
1
330
17
  0
LAYOUT
  5
1E
330
D
100
AcDbPlotSettings
  1

  4
A3
  6

 40
7.5
 41
20.0
 42
7.5
 43
20.0
 44
420.0
 45
297.0
 46
0.0
 47
0.0
 48
0.0
 49
0.0
140
0.0
141
0.0
142
1.0
143
1.0
 70
0
 72
1
 73
0
 74
5
  7

 75
16
 76
0
 77
2
 78
300
147
1.0
148
0.0
149
0.0
100
AcDbLayout
  1
Layout1
 70
1
 71
1
 10
0.0
 20
0.0
 11
420.0
 21
297.0
 12
0.0
 22
0.0
 32
0.0
 14
1e+20
 24
1e+20
 34
1e+20
 15
-1e+20
 25
-1e+20
 35
-1e+20
146
0.0
 13
0.0
 23
0.0
 33
0.0
 16
1.0
 26
0.0
 36
0.0
 17
0.0
 27
1.0
 37
0.0
 76
1
330
1B
  0
MATERIAL
  5
1F
102
{ACAD_REACTORS
330
E
102
}
330
E
100
AcDbMaterial
  1
ByBlock
  2

 70
0
 40
1.0
 71
1
 41
1.0
 91
-1023410177
 42
1.0
 72
1
  3

 73
1
 74
1
 75
1
 44
0.5
 73
0
 45
1.0
 46
1.0
 77
1
  4

 78
1
 79
1
170
1
 48
1.0
171
1
  6

172
1
173
1
174
1
140
1.0
141
1.0
175
1
  7

176
1
177
1
178
1
143
1.0
179
1
  8

270
1
271
1
272
1
145
1.0
146
1.0
273
1
  9

274
1
275
1
276
1
 42
1.0
 72
1
  3

 73
1
 74
1
 75
1
 94
63
  0
MATERIAL
  5
20
102
{ACAD_REACTORS
330
E
102
}
330
E
100
AcDbMaterial
  1
ByLayer
  2

 70
0
 40
1.0
 71
1
 41
1.0
 91
-1023410177
 42
1.0
 72
1
  3

 73
1
 74
1
 75
1
 44
0.5
 73
0
 45
1.0
 46
1.0
 77
1
  4

 78
1
 79
1
170
1
 48
1.0
171
1
  6

172
1
173
1
174
1
140
1.0
141
1.0
175
1
  7

176
1
177
1
178
1
143
1.0
179
1
  8

270
1
271
1
272
1
145
1.0
146
1.0
273
1
  9

274
1
275
1
276
1
 42
1.0
 72
1
  3

 73
1
 74
1
 75
1
 94
63
  0
MATERIAL
  5
21
102
{ACAD_REACTORS
330
E
102
}
330
E
100
AcDbMaterial
  1
Global
  2

 70
0
 40
1.0
 71
1
 41
1.0
 91
-1023410177
 42
1.0
 72
1
  3

 73
1
 74
1
 75
1
 44
0.5
 73
0
 45
1.0
 46
1.0
 77
1
  4

 78
1
 79
1
170
1
 48
1.0
171
1
  6

172
1
173
1
174
1
140
1.0
141
1.0
175
1
  7

176
1
177
1
178
1
143
1.0
179
1
  8

270
1
271
1
272
1
145
1.0
146
1.0
273
1
  9

274
1
275
1
276
1
 42
1.0
 72
1
  3

 73
1
 74
1
 75
1
 94
63
  0
MLINESTYLE
  5
22
102
{ACAD_REACTORS
330
10
102
}
330
10
100
AcDbMlineStyle
  2
Standard
 70
0
  3

 62
256
 51
90.0
 52
90.0
 71
2
 49
0.5
 62
256
  6
BYLAYER
 49
-0.5
 62
256
  6
BYLAYER
  0
MLEADERSTYLE
  5
2C
102
{ACAD_REACTORS
330
F
102
}
330
F
100
AcDbMLeaderStyle
179
2
170
2
171
1
172
0
 90
2
 40
0.0
 41
0.0
173
1
 91
-1056964608
 92
-2
290
1
 42
2.0
291
1
 43
8.0
  3
Standard
 44
4.0
300

342
29
174
1
175
1
176
0
178
1
 93
-1056964608
 45
4.0
292
0
297
0
 46
4.0
 94
-1056964608
 47
1.0
 49
1.0
140
1.0
294
1
141
0.0
177
0
142
1.0
295
0
296
0
143
3.75
271
0
272
9
273
9
  0
DICTIONARY
  5
2D
330
A
100
AcDbDictionary
280
1
281
1
  3
CREATED_BY_EZDXF
350
2E
  3
WRITTEN_BY_EZDXF
350
32
  0
DICTIONARYVAR
  5
2E
330
2D
100
DictionaryVariables
280
0
  1
1.3.5 @ 2025-10-17T14:29:36.166394+00:00
  0
DICTIONARYVAR
  5
32
330
2D
100
DictionaryVariables
280
0
  1
1.3.5 @ 2025-10-17T14:29:36.171395+00:00
  0
ENDSEC
  0
EOF
